<svg xmlns="http://www.w3.org/2000/svg" width="600" height="400" viewBox="0 0 600 400" fill="none">
  <rect width="600" height="400" rx="20" fill="#F9FAFB"/>
  <path d="M300 100C247.5 100 205 142.5 205 195C205 247.5 247.5 290 300 290C352.5 290 395 247.5 395 195C395 142.5 352.5 100 300 100ZM300 270C258.5 270 225 236.5 225 195C225 153.5 258.5 120 300 120C341.5 120 375 153.5 375 195C375 236.5 341.5 270 300 270Z" fill="#4F46E5"/>
  <path d="M300 140C269.5 140 245 164.5 245 195C245 225.5 269.5 250 300 250C330.5 250 355 225.5 355 195C355 164.5 330.5 140 300 140ZM300 230C280.5 230 265 214.5 265 195C265 175.5 280.5 160 300 160C319.5 160 335 175.5 335 195C335 214.5 319.5 230 300 230Z" fill="#818CF8"/>
  <circle cx="300" cy="195" r="15" fill="#4F46E5"/>
  <path d="M150 195H205" stroke="#4F46E5" stroke-width="4"/>
  <path d="M395 195H450" stroke="#4F46E5" stroke-width="4"/>
  <path d="M300 100V50" stroke="#4F46E5" stroke-width="4"/>
  <path d="M300 340V290" stroke="#4F46E5" stroke-width="4"/>
  <circle cx="150" cy="195" r="10" fill="#818CF8"/>
  <circle cx="450" cy="195" r="10" fill="#818CF8"/>
  <circle cx="300" cy="50" r="10" fill="#818CF8"/>
  <circle cx="300" cy="340" r="10" fill="#818CF8"/>
  <path d="M150 150L180 180" stroke="#4F46E5" stroke-width="4"/>
  <path d="M420 180L450 150" stroke="#4F46E5" stroke-width="4"/>
  <path d="M150 240L180 210" stroke="#4F46E5" stroke-width="4"/>
  <path d="M420 210L450 240" stroke="#4F46E5" stroke-width="4"/>
  <circle cx="150" cy="150" r="10" fill="#818CF8"/>
  <circle cx="450" cy="150" r="10" fill="#818CF8"/>
  <circle cx="150" cy="240" r="10" fill="#818CF8"/>
  <circle cx="450" cy="240" r="10" fill="#818CF8"/>
</svg>