<svg xmlns="http://www.w3.org/2000/svg" width="40" height="40" viewBox="0 0 40 40" fill="none">
  <circle cx="20" cy="20" r="20" fill="#4F46E5" />
  <path d="M20 10C14.48 10 10 14.48 10 20C10 25.52 14.48 30 20 30C25.52 30 30 25.52 30 20C30 14.48 25.52 10 20 10ZM16.07 27.28C16.5 26.38 19.12 25.5 20 25.5C20.88 25.5 23.51 26.38 23.93 27.28C22.57 28.36 21.04 29 19.5 29C17.96 29 16.43 28.36 15.07 27.28ZM25.36 25.83C23.93 24.09 20.9 23.5 20 23.5C19.1 23.5 16.07 24.09 14.64 25.83C13.62 24.49 13 22.82 13 21C13 16.17 16.17 13 21 13C25.83 13 29 16.17 29 21C29 22.82 28.38 24.49 27.36 25.83ZM20 15.5C18.06 15.5 16.5 17.06 16.5 19C16.5 20.94 18.06 22.5 20 22.5C21.94 22.5 23.5 20.94 23.5 19C23.5 17.06 21.94 15.5 20 15.5ZM20 20.5C19.17 20.5 18.5 19.83 18.5 19C18.5 18.17 19.17 17.5 20 17.5C20.83 17.5 21.5 18.17 21.5 19C21.5 19.83 20.83 20.5 20 20.5Z" fill="white" />
</svg>